<svg id="logo" xmlns="http://www.w3.org/2000/svg" viewBox="0 0 1367.92969 814.56693"><defs><style>.cls-1{fill:#00c8aa;}</style></defs><title>meemoo-logo_lockup-pos-rgb</title><path id="meemoo" d="M361.32532,497.94534V583.1011H325.441v-73.563c0-19.32129-9.79907-29.94873-26.08484-29.94873-15.45776,0-28.29346,10.07519-28.29346,30.22558V583.1011h-36.022v-73.563c0-19.32129-9.661-29.94873-26.08484-29.94873-15.45776,0-28.29345,10.07519-28.29345,30.22558V583.1011h-36.022V449.3638h35.05591v15.73389c9.523-14.21631,24.15271-19.32276,39.33472-19.32276,19.322,0,35.194,8.69532,44.165,22.91162,10.351-16.97607,27.8789-22.91162,45.40686-22.91162C340.0708,445.77493,361.32532,466.89212,361.32532,497.94534Zm152.755,18.08057a103.24005,103.24005,0,0,1-.68994,12.145H418.57361c3.86426,19.32275,17.38989,27.74121,34.366,27.74121,11.59313,0,24.15271-4.69336,33.81372-12.835l21.11645,23.18555c-15.18164,13.93945-34.504,20.28808-57.00073,20.28808-40.99036,0-69.42188-27.8789-69.42188-69.97265,0-42.09522,27.60315-70.80323,67.62781-70.80323C487.5813,445.77493,513.94226,474.34525,514.08032,516.02591ZM418.71167,503.604h59.20862c-3.31238-17.11377-13.6637-26.77441-29.12146-26.77441C431.82312,476.82962,421.886,487.04251,418.71167,503.604Zm240.81848,12.42188a103.32006,103.32006,0,0,1-.68994,12.145H564.02344c3.86426,19.32275,17.38989,27.74121,34.366,27.74121,11.59314,0,24.15271-4.69336,33.81373-12.835l21.11645,23.18555c-15.18164,13.93945-34.504,20.28808-57.00037,20.28808-40.99072,0-69.42224-27.8789-69.42224-69.97265,0-42.09522,27.60315-70.80323,67.62781-70.80323C633.03113,445.77493,659.39209,474.34525,659.53015,516.02591ZM564.1615,503.604h59.20862c-3.31238-17.11377-13.6637-26.77441-29.12146-26.77441C577.273,476.82962,567.33582,487.04251,564.1615,503.604Zm333.15088-5.65869V583.1011H861.4281v-73.563c0-19.32129-9.79907-29.94873-26.08484-29.94873-15.45776,0-28.29346,10.07519-28.29346,30.22558V583.1011h-36.022v-73.563c0-19.32129-9.661-29.94873-26.08484-29.94873-15.45776,0-28.29345,10.07519-28.29345,30.22558V583.1011h-36.022V449.3638h35.05591v15.73389c9.52295-14.21631,24.15271-19.32276,39.33472-19.32276,19.322,0,35.194,8.69532,44.165,22.91162,10.351-16.97607,27.8789-22.91162,45.40686-22.91162C876.05786,445.77493,897.31238,466.89212,897.31238,497.94534Zm164.76233,18.21826c0,40.30079-30.77747,70.38721-72.45813,70.38721-41.54261,0-72.18238-30.08642-72.18238-70.38721s30.63977-70.38867,72.18238-70.38867C1031.29724,445.77493,1062.07471,475.86282,1062.07471,516.1636Zm-107.92823,0c0,21.668,15.18165,36.84961,35.4701,36.84961s35.60815-15.18164,35.60815-36.84961-15.3197-36.85107-35.60815-36.85107S954.14648,494.49564,954.14648,516.1636Zm265.38465,0c0,40.30079-30.77747,70.38721-72.45813,70.38721-41.5426,0-72.18237-30.08642-72.18237-70.38721s30.63977-70.38867,72.18237-70.38867C1188.75366,445.77493,1219.53113,475.86282,1219.53113,516.1636Zm-107.92822,0c0,21.668,15.18164,36.84961,35.47009,36.84961s35.60815-15.18164,35.60815-36.84961-15.3197-36.85107-35.60815-36.85107S1111.60291,494.49564,1111.60291,516.1636Z"/><path id="vlaams_instituut_voor_het_archief" data-name="vlaams instituut voor het archief" d="M182.8396,631.12454,168.65735,673.1011h-9.8346L144.6405,631.12454h8.69532l10.46411,33.041,10.52417-33.041ZM214.493,665.48538v7.61572H187.088V631.12454h8.21558v34.36084Zm28.801-1.88965H227.85242l-3.05823,9.50537h-8.5155l14.5122-41.97656h9.71448l14.51221,41.97656h-8.66529Zm-2.42871-7.46484-5.30713-16.43115-5.2771,16.43115Zm42.11792,7.46484H267.54163l-3.05823,9.50537h-8.5155l14.5122-41.97656h9.71448l14.51221,41.97656H286.0415Zm-2.42871-7.46484-5.30713-16.43115-5.2771,16.43115ZM341.142,673.1011h-8.15552V642.2178l-8.755,24.1377h-8.33533l-8.75537-24.01758V673.1011H298.9552V631.12454h11.57373l9.53467,25.51612,9.53467-25.51612H341.142Zm33.15893-31.54248a17.27342,17.27342,0,0,0-10.22461-3.44824c-3.98767,0-6.83606,1.76953-6.83606,4.79737,0,2.81835,2.90845,4.01806,7.466,5.06689l2.4884.56982c7.31616,1.67872,11.87366,5.33789,11.87366,11.96338,0,8.84473-7.25611,13.25244-15.80127,13.25244-6.32666,0-12.14356-2.12841-16.01148-5.69677l4.73767-6.17578a17.20633,17.20633,0,0,0,11.27381,4.25683c4.04773,0,7.07593-1.73877,7.07593-4.85742,0-2.7583-2.39869-4.0166-7.19605-5.06689l-2.72827-.59913c-7.70581-1.68017-11.8136-5.69677-11.8136-12.353,0-7.73584,6.41638-12.8042,15.26148-12.8042a24.09331,24.09331,0,0,1,14.75207,4.76806Zm31.68824,31.54248h-8.21558V631.12454h8.21558Zm41.74511,0h-7.85559l-18.11023-27.28564V673.1011h-8.15551V631.12454h7.85559l18.14025,27.34424V631.12454h8.12549Zm33.15491-31.54248a17.27342,17.27342,0,0,0-10.22461-3.44824c-3.98767,0-6.83606,1.76953-6.83606,4.79737,0,2.81835,2.90845,4.01806,7.46594,5.06689l2.48841.56982c7.31616,1.67872,11.87365,5.33789,11.87365,11.96338,0,8.84473-7.2561,13.25244-15.80127,13.25244-6.32666,0-12.14355-2.12841-16.0111-5.69677l4.7373-6.17578a17.2063,17.2063,0,0,0,11.2738,4.25683c4.04773,0,7.07593-1.73877,7.07593-4.85742,0-2.7583-2.39868-4.0166-7.196-5.06689l-2.72827-.59913c-7.70581-1.68017-11.8136-5.69677-11.8136-12.353,0-7.73584,6.41638-12.8042,15.26147-12.8042a24.09318,24.09318,0,0,1,14.75208,4.76806Zm38.78833-2.81836H508.19385V673.1011h-8.21558V638.74026H488.49463v-7.61572h31.18286Zm12.81995,34.36084h-8.21558V631.12454h8.21558Zm35.74878-34.36084H556.76257V673.1011H548.547V638.74026H537.06335v-7.61572h31.18287Zm36.92688,18.98c0,10.2539-6.29627,16.04-16.3407,16.04-10.0448,0-16.3711-5.78613-16.3711-16.04V631.12454h8.21558v26.1753c0,5.84619,3.2981,8.54589,8.15552,8.54589,4.857,0,8.15552-2.6997,8.15552-8.54589v-26.1753h8.18518Zm39.59912,0c0,10.2539-6.29627,16.04-16.3407,16.04-10.0448,0-16.3711-5.78613-16.3711-16.04V631.12454H620.276v26.1753c0,5.84619,3.2981,8.54589,8.15552,8.54589,4.85705,0,8.15552-2.6997,8.15552-8.54589v-26.1753h8.18518Zm35.40161-18.98H668.69019V673.1011h-8.21558V638.74026H648.991v-7.61572h31.18286Zm50.5459-7.61572L716.53748,673.1011h-9.8346l-14.18225-41.97656h8.69531l10.46411,33.041,10.52417-33.041Zm39.98767,20.98828c0,13.043-7.85559,21.67823-19.459,21.67823-11.60376,0-19.45935-8.63526-19.45935-21.67823s7.85559-21.67822,19.45935-21.67822C762.85181,630.4346,770.7074,639.06985,770.7074,652.11282Zm-30.4032,0c0,8.6045,4.49744,13.73291,10.94421,13.73291,6.44641,0,10.94385-5.12841,10.94385-13.73291,0-8.606-4.49744-13.73291-10.94385-13.73291C744.80164,638.37991,740.3042,643.50687,740.3042,652.11282Zm73.84314,0c0,13.043-7.85559,21.67823-19.459,21.67823-11.60376,0-19.45935-8.63526-19.45935-21.67823s7.85559-21.67822,19.45935-21.67822C806.29175,630.4346,814.14734,639.06985,814.14734,652.11282Zm-30.4032,0c0,8.6045,4.49744,13.73291,10.94421,13.73291,6.44642,0,10.94385-5.12841,10.94385-13.73291,0-8.606-4.49743-13.73291-10.94385-13.73291C788.24158,638.37991,783.74414,643.50687,783.74414,652.11282Zm46.76807,4.46778h-2.06873v16.5205h-8.21557V631.12454h15.65148c9.38489,0,14.692,4.85742,14.692,12.95215,0,6.62695-4.16785,11.18408-11.24414,12.26367L850.901,673.1011h-9.65478Zm-2.06873-6.98584h7.34583c3.988,0,6.38672-1.8003,6.38672-5.51807,0-3.687-2.45874-5.42725-6.38672-5.42725h-7.34583Zm74.14563-18.47022V673.1011h-8.18555V655.71048H877.493V673.1011h-8.21557V631.12454H877.493v17.001h16.91052v-17.001Zm35.4928,34.51026v7.4663H910.22717V631.12454h27.76465v7.46485H918.44275v9.59472h18.52991v7.46631H918.44275v9.98438Zm35.0094-26.89454H961.60767V673.1011h-8.21558V638.74026H941.90845v-7.61572h31.18286Zm39.54236,24.85547H997.192l-3.05823,9.50537h-8.5155l14.5122-41.97656h9.71448l14.51221,41.97656h-8.66529Zm-2.42871-7.46484-5.30713-16.43115-5.2771,16.43115Zm28.68493.44971h-2.06872v16.5205h-8.21558V631.12454h15.65149c9.38489,0,14.692,4.85742,14.692,12.95215,0,6.62695-4.16785,11.18408-11.24414,12.26367l11.57373,16.76074h-9.65479Zm-2.06872-6.98584h7.34582c3.988,0,6.38672-1.8003,6.38672-5.51807,0-3.687-2.45874-5.42725-6.38672-5.42725h-7.34582Zm61.96618-9.68555-7.07629,3.86865a9.91678,9.91678,0,0,0-8.99487-5.398c-6.29663,0-10.8241,5.127-10.8241,13.73291.03,8.90479,4.76733,13.73291,10.85413,13.73291a10.14567,10.14567,0,0,0,9.05493-5.36718l6.77636,4.28759a17.45221,17.45221,0,0,1-15.83129,9.02491c-11.51368,0-19.36927-8.5459-19.36927-21.67823s7.85559-21.67822,19.36927-21.67822C1089.85217,630.4346,1095.84888,633.9429,1098.78735,639.90921Zm38.84986-8.78467V673.1011h-8.18555V655.71048h-16.91052V673.1011h-8.21558V631.12454h8.21558v17.001h16.91052v-17.001Zm15.85363,41.97656h-8.21557V631.12454h8.21557Zm35.47852-7.4663v7.4663h-27.85474V631.12454h27.76465v7.46485H1169.3302v9.59472h18.52991v7.46631H1169.3302v9.98438Zm15.10034-27.04541v9.92578h17.96009V655.98H1204.0697V673.1011h-8.21557V631.12454h27.43505v7.46485Z"/><path id="symbol" class="cls-1" d="M361.75842,255.6022a.07928.07928,0,0,1,.08558.08558v96.86155H476.74568V146.20616H361.844v96.86133s0,.07728-.10752.07728a.07265.07265,0,0,1-.07275-.07728,108.6016,108.6016,0,1,0,0,12.62029A.08576.08576,0,0,1,361.75842,255.6022Z"/></svg>