<?xml version="1.0" encoding="utf-8"?>
<!-- Generator: Adobe Illustrator 22.1.0, SVG Export Plug-In . SVG Version: 6.00 Build 0)  -->
<svg version="1.1" id="Layer_1" xmlns="http://www.w3.org/2000/svg" xmlns:xlink="http://www.w3.org/1999/xlink" x="0px" y="0px"
	 viewBox="0 0 461.7 354.2" style="enable-background:new 0 0 461.7 354.2;" xml:space="preserve">
<style type="text/css">
	.st0{fill:#F14A3B;}
	.st1{fill:#44DBA4;}
	.st2{fill:#0A0839;}
	.st3{fill:#FCB70F;}
</style>
<g>
	<g>
		<path class="st0" d="M409,244.3c-12.8,9.5-30.8,6.8-40.2-6c-9.5-12.8-6.8-30.8,6-40.2c12.8-9.5,30.8-6.8,40.2,6
			C424.5,216.8,421.8,234.8,409,244.3z"/>
	</g>
	<g>
		<path class="st1" d="M395.3,163.1c-8.6,3.1-17.7,4.7-26.9,4.6c-10.1,0-20-2-29.4-5.9c-9.7-4-18.4-9.8-25.8-17.3
			c-7.4-7.5-13.2-16.2-17.1-26c-3.8-9.4-5.6-19.3-5.6-29.4c0-10.1,2-20,5.9-29.4c4-9.7,9.8-18.4,17.3-25.8
			c7.5-7.4,16.2-13.2,26-17.1c9.4-3.8,19.3-5.6,29.4-5.6c10.1,0,20,2,29.4,5.9c9.7,4,18.4,9.8,25.8,17.3l-31.4,31.1
			c-6.4-6.5-14.9-10.1-24-10.1c-9.1,0-17.6,3.5-24.1,9.9c-6.5,6.4-10.1,14.9-10.1,24c0,9.1,3.5,17.6,9.9,24.1
			c6.4,6.5,14.9,10.1,24,10.1c9.1,0,17.6-3.5,24.1-9.9c6.5-6.4,10.1-14.9,10.1-24l44.2,0.2c0,10.1-2,20-5.9,29.4
			c-4,9.7-9.8,18.4-17.3,25.8c-7.5,7.4-16.2,13.2-26,17.1C397,162.5,396.2,162.8,395.3,163.1z"/>
	</g>
	<g>
		<path class="st2" d="M287.6,338.2c-2.7,1-5.5,1.8-8.3,2.5c-9.9,2.4-20.1,2.9-30.3,1.3c-10.1-1.5-19.7-4.9-28.5-10.1
			c-9.1-5.4-17-12.5-23.3-21c-13.7-18.6-18.7-42.1-13.6-64.6l44.7,10.2c-2.1,9.4-0.1,19.3,5.7,27.1c5.3,7.1,13,11.8,21.8,13.1
			c8.8,1.3,17.5-0.9,24.7-6.2c7.1-5.3,11.8-13,13.1-21.8c1.3-8.8-0.9-17.5-6.2-24.7c-0.1-0.2-0.3-0.3-0.4-0.5
			c-4.3-5.5-10.3-10-30.1-14.8c-32.2-7.9-56-36.7-58.5-69.9c0-0.5-0.1-1-0.1-1.5c-0.9-15.1,2.6-30.1,9.9-43.2
			c7.2-12.8,17.7-23.3,30.5-30.4l22.3,40c-5.4,3-9.8,7.4-12.8,12.8c-3.1,5.5-4.5,11.8-4.2,18.1c0,0.2,0,0.4,0,0.6
			c1,13.8,10.5,27,25.6,31.1c14.6,4,22.9,5.1,33.4,10.9c9.6,5.2,15.6,11.7,20.2,18.3c0.3,0.4,0.6,0.8,0.9,1.2
			c6.3,8.6,10.8,18.1,13.3,28.4c2.4,9.9,2.9,20.1,1.3,30.3c-1.5,10.1-4.9,19.7-10.1,28.5c-5.4,9.1-12.5,17-21,23.3
			C301.5,332,294.7,335.6,287.6,338.2z"/>
	</g>
	<path class="st3" d="M152.6,126.3c-12.2-16.4-30-27.1-50.1-30.2c-12.7-1.9-25.4-0.6-37.2,3.7c-6.9,2.5-13.5,6-19.6,10.5
		c-16.4,12.2-27.1,30-30.2,50.1c-3,20.2,2,40.3,14.2,56.8s30,27.1,50.1,30.2c20.2,3,40.3-2,56.8-14.2c16.4-12.2,27.1-30,30.2-50.1
		C169.8,162.9,164.8,142.7,152.6,126.3z"/>
</g>
</svg>
